<svg id="Layer_1" data-name="Layer 1" xmlns="http://www.w3.org/2000/svg" viewBox="0 0 800.25 695.42"><defs><style>.cls-1{fill:#3f3d56;}.cls-2{fill:#f50057;}.cls-3{fill:#fff;}.cls-4{fill:#f2f2f2;}.cls-5{fill:#2f2e41;}.cls-6{fill:#ccc;}</style></defs><path class="cls-1" d="M767,187.88c-.43.63-.87,1.25-1.31,1.87l-1-2-.16-.33-1-2-25.46-51.31h0L694.92,47.13h0l-1-2h0l-21.36-43-1-2q1.14,0,2.28.09l1,2.05,21.3,42.93h0l1,2h0l42.06,84.73h0l1,2h0l25.46,51.27.34.69Z"/><path class="cls-1" d="M763.4,47.13H572.86c.51-.67,1-1.34,1.57-2h187.4C762.37,45.79,762.89,46.46,763.4,47.13Z"/><path class="cls-1" d="M787.54,131.87c-.06.67-.13,1.34-.22,2H738.51v-2Z"/><path class="cls-1" d="M580.11,38.54V201.46c-.69-.73-1.35-1.47-2-2.21V40.75C578.76,40,579.42,39.27,580.11,38.54Z"/><rect class="cls-1" x="579.11" y="185.39" width="186.06" height="2"/><path class="cls-2" d="M695.59,93.27c0,17-25.07,65.12-34.48,82.57a4,4,0,0,1-7,0c-9.41-17.45-34.48-65.52-34.48-82.57a38,38,0,1,1,76,0Z"/><circle class="cls-3" cx="657.59" cy="93.27" r="17"/><circle class="cls-2" cx="657.59" cy="187.27" r="7"/><path class="cls-4" d="M221.34,684.17c.3.14.61.28.92.4l-.83-.27q-5.94-2-11.79-4.17-9.4-3.52-18.56-7.65-6.54-2.94-13-6.17A326.26,326.26,0,0,1,79.3,589.83q-3.78-4.32-7.41-8.79-3.09-3.79-6-7.7A317.23,317.23,0,0,1,36,526,325.58,325.58,0,0,1,0,373.11c.28-18,2.17-36.37,9.73-52.7C16,306.92,26.68,295,40.1,289c1.12-.5,2.26-1,3.42-1.36A42.94,42.94,0,0,1,49,286.08c19.18-4.22,39.43,4.41,53.72,17.88s23.67,31.24,32.3,48.89c27.45,56.18,51.42,114.53,70.1,174.4l.63,2a90.71,90.71,0,0,0-18.66,18.1l-9.78,15.85a89.13,89.13,0,0,0-5,12.78c-.57,1.84-1.08,3.71-1.51,5.6a90,90,0,0,0,50.58,102.57Z"/><path class="cls-4" d="M241.27,690.17l-.07.35,0,.08s0-.05,0-.08,0-.26,0-.39Z"/><path class="cls-3" d="M171,573.4c.42.87.84,1.74,1.27,2.6-.57,1.84-1.08,3.71-1.51,5.6l-1.36-2.8q-11-22.51-21.36-45.3c-11.92-26-23.43-52.24-35-78.43Q94.87,413.7,76.67,372.35t-36.4-82.72a2,2,0,0,1-.17-.62c-.21-1.92,2.51-3.31,3.42-1.36l0,.05q2.28,5.15,4.54,10.3l36.4,82.72,36.28,82.42c11.49,26.1,23,52.19,35,78.06Q163.25,557.37,171,573.4Z"/><path class="cls-3" d="M232.63,693c-.67-1-1.34-2.09-2-3.14-.57-.89-1.13-1.78-1.69-2.67-.14-.22-.28-.43-.4-.65,1.84.57,3.68,1.12,5.54,1.64.15.25.31.51.48.76.45.71.9,1.43,1.36,2.14a3.79,3.79,0,0,1,.18.34C236.89,693.37,233.88,695,232.63,693Z"/><path class="cls-4" d="M223.57,687.31c.82,1.15,1.63,2.3,2.43,3.46-1.39.31-2.77.61-4.17.9-1.11.22-2.22.44-3.33.64a188.7,188.7,0,0,1-203.26-101c-4.71-9.42-8.69-19.47-9.17-30-.4-8.69,1.91-17.79,7.27-24.5.44-.56.91-1.1,1.4-1.63a26,26,0,0,1,2.41-2.28A31.37,31.37,0,0,1,36,526a43.71,43.71,0,0,1,13.83,1.63c11.06,3.14,20.72,9.83,30,16.67a719.76,719.76,0,0,1,88.51,76.74c.9.93,1.81,1.88,2.7,2.82a90.54,90.54,0,0,0,50.29,60.3l.09.13C222.16,685.3,222.87,686.3,223.57,687.31Z"/><path class="cls-4" d="M226.15,691l-.15-.22.08,0Z"/><path class="cls-3" d="M13.59,537.05l41.23,33.12,41.23,33.12c13.06,10.49,26.11,21,39.33,31.28s26.35,20.21,39.92,29.78S202.72,683,217,691.44q2.67,1.57,5.36,3.12c1.24.71,2.44-1.17,1.19-1.89-14.39-8.25-28.35-17.22-42-26.66s-27-19.37-40.11-29.52-26.23-20.64-39.24-31.09l-41.08-33L19.91,539.29l-5.14-4.12c-1.11-.9-2.29,1-1.18,1.88Z"/><path class="cls-4" d="M578.92,684.17c-.3.14-.61.28-.92.4l.83-.27q5.94-2,11.79-4.17,9.4-3.52,18.56-7.65,6.54-2.94,13-6.17A326.39,326.39,0,0,0,721,589.83q3.78-4.32,7.41-8.79,3.09-3.79,6-7.7A318.86,318.86,0,0,0,764.22,526a325.82,325.82,0,0,0,36-152.9c-.28-18-2.17-36.37-9.73-52.7-6.25-13.49-16.91-25.46-30.33-31.4-1.12-.5-2.26-1-3.42-1.36a42.94,42.94,0,0,0-5.45-1.57c-19.18-4.22-39.43,4.41-53.72,17.88s-23.67,31.24-32.3,48.89c-27.45,56.18-51.42,114.53-70.1,174.4l-.63,2a90.91,90.91,0,0,1,18.65,18.1L623,563.22A89.18,89.18,0,0,1,628,576q.85,2.76,1.51,5.6a90,90,0,0,1-50.58,102.57Z"/><path class="cls-4" d="M559,690.17l.07.35,0,.08s0-.05,0-.08,0-.26,0-.39Z"/><path class="cls-3" d="M629.26,573.4c-.42.87-.84,1.74-1.27,2.6q.85,2.76,1.51,5.6l1.36-2.8q11-22.51,21.36-45.3c11.92-26,23.43-52.24,35-78.43q18.21-41.37,36.41-82.72T760,289.63a2.72,2.72,0,0,0,.17-.62c.21-1.92-2.51-3.31-3.42-1.36,0,0,0,0,0,.05q-2.28,5.15-4.54,10.3-18.2,41.36-36.4,82.72-18.13,41.2-36.28,82.42c-11.49,26.1-23,52.19-35,78.06Q637,557.37,629.26,573.4Z"/><path class="cls-3" d="M567.63,693c.67-1,1.34-2.09,2-3.14.57-.89,1.13-1.78,1.69-2.67.14-.22.28-.43.4-.65q-2.76.86-5.54,1.64c-.15.25-.31.51-.48.76-.45.71-.9,1.43-1.36,2.14a3.79,3.79,0,0,0-.18.34C563.37,693.37,566.38,695,567.63,693Z"/><path class="cls-4" d="M576.69,687.31c-.82,1.15-1.63,2.3-2.43,3.46,1.39.31,2.77.61,4.17.9,1.11.22,2.22.44,3.33.64A188.71,188.71,0,0,0,785,591.26c4.71-9.42,8.69-19.47,9.17-30,.4-8.69-1.91-17.79-7.27-24.5-.44-.56-.91-1.1-1.4-1.63a27.3,27.3,0,0,0-2.41-2.28A31.41,31.41,0,0,0,764.22,526a43.64,43.64,0,0,0-13.83,1.63c-11.06,3.14-20.72,9.83-30,16.67a718.29,718.29,0,0,0-88.51,76.74c-.9.93-1.81,1.88-2.7,2.82a90.6,90.6,0,0,1-50.29,60.3.38.38,0,0,0-.09.13C578.1,685.3,577.39,686.3,576.69,687.31Z"/><path class="cls-4" d="M574.11,691l.15-.22-.08,0Z"/><path class="cls-3" d="M786.67,537.05l-41.24,33.12L704.2,603.29c-13.06,10.49-26.11,21-39.32,31.28S638.52,654.78,625,664.35s-27.42,18.67-41.7,27.09q-2.67,1.57-5.36,3.12c-1.24.71-2.43-1.17-1.19-1.89,14.39-8.25,28.35-17.22,42-26.66s27-19.37,40.1-29.52S685,615.85,698,605.4l41.08-33,41.24-33.12,5.13-4.12c1.11-.9,2.3,1,1.19,1.88Z"/><path class="cls-2" d="M369,357.49a6.4,6.4,0,0,0-3.74,3.29l-5.14,10.44-1.37,2.8a6.51,6.51,0,0,0,2.95,8.7l39.81,19.58L472.09,437a6.5,6.5,0,0,0,8.48-2.54l.22-.41,3.94-8,2.58-5.26a6.13,6.13,0,0,0,.48-1.32,6.5,6.5,0,0,0-3.45-7.38L475.93,408l-62.25-30.62L374,357.81A6.47,6.47,0,0,0,369,357.49Z"/><path class="cls-5" d="M356.68,361.36a18.25,18.25,0,0,0-1.88,3.3,18.52,18.52,0,0,0,9.45,24.4l31.1,13.73a6.52,6.52,0,0,0,6.16-.49,6.41,6.41,0,0,0,1.85-1.82,6.7,6.7,0,0,0,.57-1l9.69-22,.06-.16a6.5,6.5,0,0,0-3.38-8.41l-31.11-13.73A18.53,18.53,0,0,0,356.68,361.36Z"/><path class="cls-2" d="M442,461.24H427.19a6.5,6.5,0,0,0-6.5,6.5v92a6.5,6.5,0,0,0,6.5,6.5H442a6.5,6.5,0,0,0,6.5-6.5h0v-92a6.5,6.5,0,0,0-6.5-6.5Z"/><path class="cls-6" d="M432.84,494.61a8.62,8.62,0,0,1-3.14-.59l-82.22-32.17a8.92,8.92,0,0,1-4.93-11.6l7-18a9,9,0,0,1,4.72-5,8.65,8.65,0,0,1,6.77-.19l82.22,32.17a8.67,8.67,0,0,1,4.85,4.73,9,9,0,0,1,.08,6.86l-7,18A9,9,0,0,1,432.84,494.61Z"/><path class="cls-5" d="M442.38,572h-16a5.5,5.5,0,0,1,0-11h16a5.5,5.5,0,0,1,0,11Z"/><path class="cls-5" d="M316.49,472.31a26.19,26.19,0,0,1-6-.63c-8.87-2.05-12.15-5.94-12.69-7.92a1.76,1.76,0,0,1,.33-1.81,1.52,1.52,0,0,1,1.63-.23c2.76.92,41.85-6.81,55.73-10,5.78-1.33,9.83-1.11,12.05.65a3.91,3.91,0,0,1,1.57,2.84v.34l-27.3,10.11C340.94,466.09,328.22,472.31,316.49,472.31Z"/><path class="cls-5" d="M530.31,592.81a1,1,0,0,1-.92-.6L477.88,475.06a3,3,0,0,0-2.81-1.8l-140.93,2.88a3,3,0,0,0-2.5,1.43L264,588.18a1,1,0,0,1-1.71-1l67.64-110.6a5,5,0,0,1,4.16-2.39L475,471.26a5,5,0,0,1,4.68,3l51.51,117.16a1,1,0,0,1-.51,1.32,1.14,1.14,0,0,1-.4.08Z"/><path class="cls-5" d="M367.13,597a1,1,0,0,1-1-.72l-32.6-113.43a1,1,0,0,1,.68-1.23,1,1,0,0,1,1.24.68l32.6,113.42a1,1,0,0,1-.69,1.24h0A.84.84,0,0,1,367.13,597Z"/><path class="cls-6" d="M374.13,465.5h-32a22.52,22.52,0,0,1-22.5-22.5v-5a22.52,22.52,0,0,1,22.5-22.5h32a22.53,22.53,0,0,1,22.5,22.5v5A22.53,22.53,0,0,1,374.13,465.5Z"/><circle class="cls-5" cx="538.38" cy="602.2" r="6"/><circle class="cls-5" cx="256.38" cy="602.2" r="6"/><path class="cls-5" d="M470.3,429a3.5,3.5,0,0,1-1.17-6.8l30.17-10.67a3.5,3.5,0,0,1,2.33,6.6l-30.17,10.67A3.54,3.54,0,0,1,470.3,429Z"/><path class="cls-5" d="M391.28,596.2a1,1,0,0,1-1-1,1,1,0,0,1,.28-.7L481,500.8a1,1,0,0,1,1.42,0,1,1,0,0,1,0,1.41h0L392,595.89A1,1,0,0,1,391.28,596.2Z"/><path class="cls-5" d="M272.6,608.24a1,1,0,0,1,0-2l83.52-.24h0a1,1,0,0,1,0,2l-83.52.24Z"/><path class="cls-5" d="M476.32,464.76a1,1,0,0,1-1-.79l-4.68-21.84a1,1,0,0,1,.77-1.19l.21,0h15.87V430.2a1,1,0,0,1,2,0v11.72a1,1,0,0,1-1,1H472.88l4.42,20.63a1,1,0,0,1-.77,1.19.75.75,0,0,1-.21,0Z"/><path class="cls-5" d="M374.13,634a20,20,0,1,1,20-20A20,20,0,0,1,374.13,634Zm0-38a18,18,0,1,0,18,18h0A18,18,0,0,0,374.13,596Z"/><path class="cls-5" d="M393.38,619h-16a5.5,5.5,0,0,1,0-11h16a5.5,5.5,0,0,1,0,11Z"/><path class="cls-1" d="M775.4,695H37.11a1.19,1.19,0,1,1,0-2.38H775.4a1.19,1.19,0,0,1,0,2.38Z"/><path class="cls-2" d="M383.07,330.33a6.46,6.46,0,0,0-4.38,2.36l-7.38,9-2,2.41a6.51,6.51,0,0,0,.9,9.15l34.3,28.12,60.84,49.86a6.5,6.5,0,0,0,8.83-.54c.12-.12.21-.23.32-.36l5.65-6.88,3.71-4.53a7.72,7.72,0,0,0,.77-1.18,6.49,6.49,0,0,0-1.69-8l-7.25-5.95-53.65-44-34.23-28.07A6.5,6.5,0,0,0,383.07,330.33Z"/><circle class="cls-2" cx="361.19" cy="239.91" r="53.52"/><path class="cls-5" d="M406.38,263.57l-.05-2c3.72-.11,7-.34,9.46-2.14a6.15,6.15,0,0,0,2.39-4.53A3.52,3.52,0,0,0,417,252c-1.63-1.39-4.27-.94-6.18-.06l-1.66.76,3.17-23.19,2,.27-2.7,19.73c2.6-.77,5-.44,6.67,1a5.44,5.44,0,0,1,1.86,4.49A8.06,8.06,0,0,1,417,261C413.81,263.36,409.69,263.47,406.38,263.57Z"/><rect class="cls-5" x="390.13" y="231.49" width="10.77" height="2"/><path class="cls-5" d="M420.13,356l-23.86-24.21a18.5,18.5,0,1,0-26.36,26L393.77,382a6.49,6.49,0,0,0,8.17.88,5,5,0,0,0,1-.81l17.1-16.84a6.49,6.49,0,0,0,.07-9.2Z"/><path class="cls-2" d="M393,505.24H378.19a6.5,6.5,0,0,0-6.5,6.5v92a6.5,6.5,0,0,0,6.5,6.5H393a6.5,6.5,0,0,0,6.5-6.5h0v-92a6.5,6.5,0,0,0-6.5-6.5Z"/><path class="cls-6" d="M370.7,536.89c-4.73,0-8.8-2.92-9.53-7.13l-15-87a8.22,8.22,0,0,1,1.9-6.68,10.88,10.88,0,0,1,6.61-3.73l21.61-3.72c5.52-.95,10.68,2.18,11.5,7l15,87a8.21,8.21,0,0,1-1.9,6.67,11,11,0,0,1-6.62,3.74l-21.6,3.71A12,12,0,0,1,370.7,536.89Z"/><path class="cls-5" d="M392.64,319.66a38.74,38.74,0,0,0-8.78-7.42,44.86,44.86,0,0,0-46.88.21,38.43,38.43,0,0,0-7.63,6.3,33.19,33.19,0,0,0-9.3,22.8v96.26a3.7,3.7,0,0,0,.08.88c.47,3,3.4,5.31,6.92,5.31h67.07c3.85,0,7-2.77,7-6.19V341.55A33,33,0,0,0,392.64,319.66Z"/><path class="cls-5" d="M373.22,244.17c-7.1,2.36-15.06-2.49-15.52-10.12a12,12,0,0,1,3.73-9.57,16.12,16.12,0,0,1,8.4-3.72c6.74-1.17,13.67-.22,20.43-1.23s12.85-4.54,15.84-10.95a24.66,24.66,0,0,0,.17-20.07c-3.1-7.1-9.2-12.51-15.91-16.15-12.91-7-28.41-8.39-42.65-5.28a66.3,66.3,0,0,0-36.66,21.83c-1.13,1.37-2.21,2.78-3.22,4.24a1.5,1.5,0,0,0,1.29,2.26l8.78-1.06-1.3-2.25-9.54,17.14c-.58,1.06.41,2.69,1.7,2.21l14-5.28-1.46-2.5-13.88,16.9c-1.21,1.48.9,3.61,2.13,2.12l13.87-16.9c.85-1,.1-3.09-1.45-2.51l-14,5.27,1.7,2.21,9.53-17.15c.5-.89-.11-2.4-1.29-2.26l-8.78,1.06,1.3,2.26c8.19-11.74,20.76-20,34.49-23.8S374,167.67,387,174c6.84,3.34,13.11,8.36,16.4,15.39a21.27,21.27,0,0,1-.71,19.26c-7.52,12.85-25.07,6.25-36.81,10-6.7,2.13-11.51,8-11.18,15.24a14.7,14.7,0,0,0,14.1,13.91,14.1,14.1,0,0,0,5.23-.72c1.82-.6,1-3.5-.8-2.89Z"/><path class="cls-6" d="M764.94,187.39h.23v-.33ZM763.4,47.13c-.51-.67-1-1.34-1.57-2a119.78,119.78,0,0,0-88-45Q672.7.08,671.56.05c-1.14,0-2.28,0-3.43,0a119.62,119.62,0,0,0-88,38.54c-.69.73-1.35,1.47-2,2.21q-1.9,2.14-3.68,4.38c-.54.66-1.06,1.33-1.57,2a119.71,119.71,0,0,0,5.25,152.12c.65.74,1.31,1.48,2,2.21a119.87,119.87,0,0,0,185.61-11.71c.44-.62.88-1.24,1.31-1.87a119.16,119.16,0,0,0,20.29-54c.09-.66.16-1.33.22-2q.59-5.85.59-11.87A119.36,119.36,0,0,0,763.4,47.13Zm21.91,86.74a117,117,0,0,1-19.3,52q-.4.61-.84,1.23l-.23.33-.23.33a117.85,117.85,0,0,1-184.6,10.78c-.69-.76-1.36-1.52-2-2.3a117.75,117.75,0,0,1-2.73-149.07c.53-.67,1.06-1.34,1.61-2,.36-.45.73-.89,1.12-1.33.64-.78,1.31-1.54,2-2.3a117.66,117.66,0,0,1,88-39.5q2.24,0,4.44.09c.77,0,1.53.06,2.29.1a117.85,117.85,0,0,1,84.41,42.94c.55.66,1.08,1.33,1.61,2A117.4,117.4,0,0,1,786.13,120q0,6-.59,11.87c-.07.67-.14,1.34-.23,2Zm-20.37,53.52h.23v-.33l-.23.33Z"/><path class="cls-5" d="M258.13,692.71a91,91,0,1,1,91-91A91,91,0,0,1,258.13,692.71Zm0-180a89,89,0,1,0,89,89h0A89.11,89.11,0,0,0,258.13,512.71Z"/><path class="cls-5" d="M540.13,692.71a91,91,0,1,1,91-91A91,91,0,0,1,540.13,692.71Zm0-180a89,89,0,1,0,89,89h0A89.11,89.11,0,0,0,540.13,512.71Z"/></svg>