<svg id="Layer_1" data-name="Layer 1" xmlns="http://www.w3.org/2000/svg" viewBox="0 0 800.25 695.42"><defs><style>.cls-1{fill:#feb8b8;}.cls-2{fill:#f0f0f0;}.cls-3{fill:#fff;}.cls-4{fill:#cacaca;}.cls-5{fill:#2f2e41;}.cls-6{fill:#00b0ff;}.cls-7{fill:#ffb6b6;}.cls-8{fill:#f2f2f2;}</style></defs><path id="b901917b-4981-4312-adbf-d5b8f006e98e-19" class="cls-1" d="M376.08,597.87s10.18-16.7,23.25-6.82,37.27,26.53,37.27,26.53,4.95,10.66-7.88,6.66S374,613.79,374,613.79Z"/><path class="cls-2" d="M91.61,491.81c3.24-26.08,19.4-51.78,44.28-60.27a121.08,121.08,0,0,0,0,83.15c3.82,10.34,9.15,21.44,5.55,31.86-2.23,6.48-7.71,11.45-13.83,14.55s-12.9,4.58-19.61,6l-1.32,1.09C96.05,544.18,88.36,517.9,91.61,491.81Z"/><path class="cls-3" d="M136.14,432a103.51,103.51,0,0,0-25.73,58.26,44.5,44.5,0,0,0,.5,14,25.58,25.58,0,0,0,6.36,11.86c2.87,3.14,6.16,6,8.21,9.82a15.63,15.63,0,0,1,.77,12.78c-1.81,5.2-5.38,9.43-9,13.45-4,4.46-8.3,9-10,14.94-.21.72-1.31.35-1.1-.36,3-10.29,13-16.14,17.73-25.4,2.22-4.33,3.16-9.35,1.07-13.91-1.82-4-5.22-7-8.14-10.14a27.15,27.15,0,0,1-6.65-11.36,41.13,41.13,0,0,1-1-13.89,100.48,100.48,0,0,1,7.34-30.52,105.54,105.54,0,0,1,18.94-30.36c.5-.55,1.26.32.77.87Z"/><path class="cls-3" d="M110.72,483.28A15.52,15.52,0,0,1,98.9,467a.58.58,0,0,1,1.15.06,14.38,14.38,0,0,0,11,15.11C111.81,482.35,111.44,483.45,110.72,483.28Z"/><path class="cls-3" d="M115.61,514.7A29.92,29.92,0,0,0,129,497.46c.21-.71,1.31-.35,1.1.36a31,31,0,0,1-13.94,17.91c-.64.39-1.16-.65-.52-1Z"/><path class="cls-3" d="M122,451.49a8.8,8.8,0,0,0,8.33-.42c.64-.39,1.16.65.52,1a9.83,9.83,0,0,1-9.21.48.58.58,0,0,1,.36-1.1Z"/><path class="cls-2" d="M211.72,478.13l-1.18.77a117,117,0,0,0-14.8,11.56c-.36.32-.72.65-1.07,1a121.9,121.9,0,0,0-26.51,36.28,117.55,117.55,0,0,0-6.49,16.8c-2.4,8-4.36,16.76-9.1,23.26a21.14,21.14,0,0,1-1.59,2H108.13l-.3-.13-1.71.07c.07-.3.15-.61.22-.91s.09-.36.13-.53,0-.24.07-.34l0-.11c0-.11.05-.21.07-.31q.64-2.62,1.33-5.25v0c3.51-13.32,8.16-26.47,14.67-38.5.19-.36.39-.73.6-1.09a112.68,112.68,0,0,1,10.16-15.41,100.32,100.32,0,0,1,6.66-7.62A83.27,83.27,0,0,1,160.88,484c15.37-8.12,33.16-11.23,49.59-6.27Z"/><path class="cls-3" d="M211.62,478.67a103.58,103.58,0,0,0-55.62,31,44.85,44.85,0,0,0-8,11.45,25.62,25.62,0,0,0-2.06,13.3c.39,4.24,1.28,8.53.64,12.79a15.66,15.66,0,0,1-7.08,10.67c-4.58,3.05-10,4.28-15.29,5.31-5.91,1.13-12.06,2.21-17,5.9-.6.45-1.26-.5-.66-1,8.57-6.42,20.07-5.07,29.45-9.61,4.38-2.11,8.15-5.56,9.23-10.46.95-4.28,0-8.71-.4-13A27.33,27.33,0,0,1,146.37,522a41.14,41.14,0,0,1,7.53-11.72,100.44,100.44,0,0,1,24.23-19.95,105.35,105.35,0,0,1,33.4-12.83C212.26,477.37,212.35,478.53,211.62,478.67Z"/><path class="cls-3" d="M160.47,504.28a15.52,15.52,0,0,1,.36-20.1c.49-.56,1.38.18.89.74a14.39,14.39,0,0,0-.3,18.71c.48.57-.48,1.23-.95.65Z"/><path class="cls-3" d="M145.46,532.32a29.92,29.92,0,0,0,21-5.72c.6-.44,1.26.51.66.95a31.12,31.12,0,0,1-21.92,5.91c-.74-.09-.53-1.22.21-1.14Z"/><path class="cls-3" d="M188.65,485.72a8.77,8.77,0,0,0,6.91,4.68c.74.07.53,1.21-.21,1.14a9.83,9.83,0,0,1-7.65-5.16.6.6,0,0,1,.14-.8.59.59,0,0,1,.81.14Z"/><path class="cls-2" d="M437.23,664.69c1.25-10.11,7.52-20.07,17.16-23.36a47,47,0,0,0,0,32.23c1.48,4,3.55,8.31,2.16,12.34a10.49,10.49,0,0,1-5.36,5.64,31.26,31.26,0,0,1-7.6,2.34l-.52.42C439,685,436,674.8,437.23,664.69Z"/><path class="cls-3" d="M454.49,641.52a40.09,40.09,0,0,0-10,22.58,17.24,17.24,0,0,0,.2,5.41,10.06,10.06,0,0,0,2.46,4.6,20.75,20.75,0,0,1,3.19,3.8,6.09,6.09,0,0,1,.29,5,15.81,15.81,0,0,1-3.49,5.21c-1.56,1.73-3.21,3.5-3.88,5.79-.08.28-.51.14-.43-.14,1.16-4,5-6.25,6.88-9.85a6.13,6.13,0,0,0,.41-5.39,15.93,15.93,0,0,0-3.15-3.93,10.5,10.5,0,0,1-2.58-4.4,16,16,0,0,1-.41-5.38A39.22,39.22,0,0,1,446.85,653a40.8,40.8,0,0,1,7.34-11.76c.19-.22.49.12.3.33Z"/><path class="cls-3" d="M444.63,661.38a6,6,0,0,1-4.58-6.3.23.23,0,0,1,.45,0,5.58,5.58,0,0,0,4.27,5.86c.29.06.14.49-.14.42Z"/><path class="cls-3" d="M446.53,673.56a11.65,11.65,0,0,0,5.18-6.68c.08-.28.51-.14.43.14a12.1,12.1,0,0,1-5.41,6.94c-.25.15-.45-.25-.2-.4Z"/><path class="cls-3" d="M449,649.07a3.4,3.4,0,0,0,3.23-.17c.25-.15.45.25.2.4a3.83,3.83,0,0,1-3.57.19.22.22,0,0,1-.14-.28.22.22,0,0,1,.28-.14Z"/><path class="cls-2" d="M483.78,659.39c-.15.1-.31.19-.46.3a43.5,43.5,0,0,0-5.73,4.48,5.14,5.14,0,0,0-.42.38,47.14,47.14,0,0,0-10.27,14.06,44.69,44.69,0,0,0-2.52,6.51c-.93,3.08-1.69,6.5-3.53,9a7.51,7.51,0,0,1-.61.76H443.63l-.11,0-.67,0,.09-.36a1.94,1.94,0,0,1,.05-.2l0-.13a.09.09,0,0,1,0,0s0-.07,0-.11c.17-.68.34-1.36.52-2h0a67.43,67.43,0,0,1,5.69-14.93c.07-.14.15-.28.23-.42a44,44,0,0,1,3.94-6,36.31,36.31,0,0,1,2.58-2.95,32,32,0,0,1,8.06-6.05c6-3.14,12.86-4.35,19.22-2.42Z"/><path class="cls-3" d="M483.74,659.6a40.15,40.15,0,0,0-21.56,12,17.55,17.55,0,0,0-3.1,4.44,10,10,0,0,0-.8,5.15,20.11,20.11,0,0,1,.25,5,6,6,0,0,1-2.74,4.13,15.72,15.72,0,0,1-5.93,2.06c-2.29.44-4.67.86-6.58,2.29-.23.17-.49-.2-.26-.37,3.33-2.49,7.78-2,11.42-3.72A6.16,6.16,0,0,0,458,686.5a15.79,15.79,0,0,0-.15-5,10.5,10.5,0,0,1,.59-5.06,16,16,0,0,1,2.92-4.54,38.64,38.64,0,0,1,9.39-7.74,41,41,0,0,1,12.94-5C484,659.09,484,659.54,483.74,659.6Z"/><path class="cls-3" d="M463.92,669.52a6,6,0,0,1,.13-7.79c.2-.21.54.07.35.29a5.58,5.58,0,0,0-.12,7.25c.19.22-.18.48-.36.25Z"/><path class="cls-3" d="M458.1,680.39a11.63,11.63,0,0,0,8.16-2.22c.23-.17.48.2.25.37a12,12,0,0,1-8.49,2.29c-.29,0-.21-.47.08-.44Z"/><path class="cls-3" d="M474.84,662.33a3.37,3.37,0,0,0,2.67,1.81c.29,0,.21.47-.08.45a3.83,3.83,0,0,1-3-2,.25.25,0,0,1,0-.32.24.24,0,0,1,.32.06Z"/><path class="cls-2" d="M722.57,450c-5-40.09-29.83-79.59-68.07-92.64a186.11,186.11,0,0,1,0,127.8c-5.87,15.89-14.06,33-8.54,49,3.44,10,11.86,17.6,21.26,22.36s19.84,7,30.14,9.27l2,1.68C715.74,530.46,727.56,490.05,722.57,450Z"/><path class="cls-3" d="M654.12,358.08a159.12,159.12,0,0,1,39.56,89.54c.69,7.13.78,14.42-.78,21.45a39.34,39.34,0,0,1-9.78,18.23c-4.4,4.84-9.47,9.28-12.62,15.11a24.08,24.08,0,0,0-1.18,19.64c2.79,8,8.27,14.49,13.86,20.66,6.2,6.86,12.75,13.88,15.38,23,.32,1.1,2,.55,1.69-.55-4.58-15.82-19.94-24.8-27.26-39-3.41-6.65-4.85-14.36-1.65-21.38,2.81-6.14,8-10.72,12.53-15.58a42,42,0,0,0,10.22-17.47c1.91-6.91,2.11-14.22,1.6-21.34a154.59,154.59,0,0,0-11.27-46.91,162,162,0,0,0-29.12-46.66c-.76-.85-1.93.49-1.18,1.34Z"/><path class="cls-3" d="M693.2,436.84a23.87,23.87,0,0,0,18.17-25,.89.89,0,0,0-1.78.09,22.1,22.1,0,0,1-17,23.22c-1.12.27-.55,2,.56,1.69Z"/><path class="cls-3" d="M685.68,485.14a46,46,0,0,1-20.55-26.5c-.32-1.1-2-.54-1.69.56a47.84,47.84,0,0,0,21.44,27.53C685.87,487.32,686.66,485.72,685.68,485.14Z"/><path class="cls-3" d="M675.79,388a13.52,13.52,0,0,1-12.8-.65c-1-.6-1.78,1-.8,1.59a15.15,15.15,0,0,0,14.16.75.93.93,0,0,0,.57-1.13A.9.9,0,0,0,675.79,388Z"/><path class="cls-2" d="M538,428.93c.6.39,1.21.78,1.81,1.19a177.35,177.35,0,0,1,22.75,17.76c.56.5,1.11,1,1.65,1.52a187.51,187.51,0,0,1,40.74,55.77,180.76,180.76,0,0,1,10,25.82c3.68,12.21,6.71,25.75,14,35.75a31.94,31.94,0,0,0,2.44,3h65.87l.45-.21,2.63.12c-.11-.46-.23-.94-.33-1.41-.06-.27-.14-.54-.2-.81s-.09-.36-.12-.53,0-.12,0-.16-.08-.32-.11-.47q-1-4-2-8.07l0,0c-5.39-20.48-12.55-40.7-22.54-59.18-.3-.56-.6-1.13-.93-1.68a173.09,173.09,0,0,0-15.62-23.69,151.58,151.58,0,0,0-10.23-11.7,127.7,127.7,0,0,0-32-24c-23.62-12.47-51-17.25-76.22-9.63C539.23,428.52,538.6,428.72,538,428.93Z"/><path class="cls-3" d="M538.1,429.76a159.07,159.07,0,0,1,85.49,47.69c4.85,5.27,9.31,11,12.3,17.59a39.41,39.41,0,0,1,3.17,20.44c-.61,6.52-2,13.11-1,19.66A24.1,24.1,0,0,0,649,551.54c7,4.69,15.32,6.59,23.5,8.15,9.08,1.75,18.54,3.41,26.12,9.08.92.69,1.93-.78,1-1.46-13.18-9.87-30.85-7.8-45.27-14.76-6.73-3.25-12.52-8.55-14.19-16.08-1.46-6.59,0-13.39.62-20a41.92,41.92,0,0,0-2.36-20.1c-2.63-6.67-6.88-12.63-11.57-18a154.54,154.54,0,0,0-37.24-30.67A162.13,162.13,0,0,0,538.24,428c-1.12-.22-1.25,1.55-.14,1.77Z"/><path class="cls-3" d="M616.72,469.13a23.86,23.86,0,0,0-.54-30.9c-.76-.86-2.13.28-1.37,1.14a22.12,22.12,0,0,1,.45,28.75c-.73.88.74,1.89,1.46,1Z"/><path class="cls-3" d="M639.8,512.22a46,46,0,0,1-32.36-8.79c-.92-.68-1.93.78-1,1.46A47.84,47.84,0,0,0,640.12,514c1.14-.13.81-1.88-.32-1.75Z"/><path class="cls-3" d="M573.41,440.6a13.5,13.5,0,0,1-10.61,7.19c-1.15.11-.82,1.87.31,1.75a15.17,15.17,0,0,0,11.77-7.92.93.93,0,0,0-.23-1.24.9.9,0,0,0-1.24.22Z"/><path class="cls-4" d="M799.36,570.72H1.21a1,1,0,1,1,0-2H799a1,1,0,0,1,1,1C800,570.28,799.9,570.72,799.36,570.72Z"/><path class="cls-4" d="M280.18,656.76H103.87a1,1,0,0,1,0-2h176a1,1,0,0,1,1,1C280.84,656.32,280.72,656.76,280.18,656.76Z"/><path class="cls-4" d="M556.88,694.89H380.57a1,1,0,1,1,0-1.95h176a1,1,0,0,1,1,1C557.54,694.46,557.42,694.89,556.88,694.89Z"/><path class="cls-4" d="M723.1,655.78H546.79a1,1,0,1,1,0-1.95h176a1,1,0,0,1,1,1C723.76,655.35,723.64,655.78,723.1,655.78Z"/><path id="ea820f77-130a-433d-b966-41522e2706cd-20" class="cls-5" d="M326.07,618.63c-10.95,0-21-1-28.94-3.53-9.47-3-15.42-7.72-17.68-14.18a16.71,16.71,0,0,1,2.62-16.56c14-18.25,62.62-23.4,69.14-24l13.23-25.06c.85-6-3.15-10.5,3.77-10.61l81.87-1.11c6.79-.15,4.86,4.06,6,9.89l12.47,22.27L414.9,578.38,423,598.16l-.53.31C406.77,607.58,361.59,618.63,326.07,618.63Z"/><path id="e2cf09bf-0dcf-4d32-bd8b-d83345e69099-21" class="cls-5" d="M461.15,556.68s75-8.58,70.08,25.74-61.93,58.63-148.31,0l9.78-17.16s32.19-1.6,51.74-10.18Z"/><path id="e394c6e3-5a9b-4b6a-ab2c-d395b6ec401d-22" class="cls-1" d="M355,401.2s-14.25-2.59-18.14,19.43-10.11,74.19-10.11,74.19l-19.33,67a13.6,13.6,0,1,0,19.38,8l25.86-71.12,4.93-61.23V405.39A4.68,4.68,0,0,0,355,401.2Z"/><path id="bce87157-538b-4a9f-a71d-b40a66ba2871-23" class="cls-1" d="M455.31,401.2s14.25-2.59,18.13,19.43,10.11,74.19,10.11,74.19l19.33,67a13.6,13.6,0,1,1-19.37,8l-25.86-71.12-4.93-61.23V405.39A4.68,4.68,0,0,1,455.31,401.2Z"/><path class="cls-6" d="M454.22,383l-27-10.08L375,372.24,352.54,383l6.31,36.3s-12.75,21.59,1.29,43.18l3.15,76.95s50.37,29.21,92.89-5.86L446.57,462s16.07-33.19,3.61-45.52Z"/><path class="cls-6" d="M443.24,394.28l11-11.28s24,12.6,23.47,54.75l-30.23-9.32Z"/><path class="cls-6" d="M364.73,394.28l-11.66-11.67S332.49,398.53,333,440.68l27.53-12.25Z"/><path id="fa495a93-2d48-4158-a295-a9de2db8cd68-24" class="cls-1" d="M440.76,589.53s-8.39-17.66-22.41-9.19-39.82,22.53-39.82,22.53-6,10.09,7.14,7.43,55.5-4.72,55.5-4.72Z"/><path class="cls-5" d="M417.44,273.77l.36-.34c7.5-7.5,9-18.14,3.4-23.77-5.32-5.32-15.12-4.24-22.51,2.22-6.34-6-14.84-7.72-20.34-3.55-6.34,4.8-6.29,15.56.11,24,.44.58.9,1.13,1.37,1.66a44.29,44.29,0,0,0-29.07,41.6v42.16a9.41,9.41,0,0,0,9.42,9.41H438.1a9.1,9.1,0,0,0,9.1-9.1V315.6A44.29,44.29,0,0,0,417.44,273.77Z"/><circle class="cls-7" cx="400.21" cy="325.99" r="36.98"/><path class="cls-5" d="M361.36,302.73a50.25,50.25,0,0,0,28.74,8.88,30.76,30.76,0,0,1-12.22,5,101.4,101.4,0,0,0,41.42.23,26.78,26.78,0,0,0,8.68-3,11,11,0,0,0,5.35-7.15c.91-5.2-3.14-9.91-7.34-13.09a54.15,54.15,0,0,0-45.51-9.09c-5.08,1.31-10.17,3.53-13.47,7.61s-4.28,10.38-1.14,14.58Z"/><path class="cls-8" d="M163.58,229l1.17-1.58,31,23c-1.69-5.14-7.66-21.44-17.45-27.94-11.69-7.77-19.92-5.36-24.4,1.39s-3.52,15.27,8.17,23c9.91,6.58,27.57,5.67,32.72,5.24Z"/><path class="cls-8" d="M630.64,102.88l1.45,1.32L606,132.68c5.28-1.14,22.12-5.38,29.6-14.44,9-10.82,7.4-19.26,1.15-24.42S621.9,88.73,613,99.55c-7.58,9.18-8.51,26.83-8.61,32Z"/><path class="cls-8" d="M209.24,407l1.44,1.32-26.13,28.48c5.29-1.14,22.12-5.39,29.61-14.45,8.94-10.82,7.39-19.25,1.15-24.41s-14.82-5.1-23.76,5.73c-7.58,9.17-8.51,26.83-8.61,32Z"/><path class="cls-8" d="M430.19,135.52l1.69,1L412.52,170c4.92-2.26,20.44-10,25.79-20.5,6.39-12.5,3.06-20.4-4.16-24.09s-15.56-1.77-22,10.73c-5.42,10.59-2.5,28-1.49,33.11Z"/><path class="cls-8" d="M611.07,344.75l1.69,1L593.4,379.18c4.92-2.26,20.44-10,25.79-20.5,6.39-12.5,3.06-20.4-4.15-24.09s-15.57-1.77-22,10.73c-5.42,10.6-2.5,28-1.49,33.11Z"/></svg>