<svg id="Layer_1" data-name="Layer 1" xmlns="http://www.w3.org/2000/svg" viewBox="0 0 800.25 695.42"><defs><style>.cls-1{fill:#e6e6e6;}.cls-2{fill:#3f3d56;}.cls-3{fill:#536dfe;}.cls-4{fill:#a0616a;}.cls-5{fill:#2f2e41;}.cls-6{fill:#f2f2f2;}.cls-7{fill:#ffb6b6;}</style></defs><path class="cls-1" d="M800.22,692.23h0a.87.87,0,0,1-.87.87H.26v-1.74H799.35A.87.87,0,0,1,800.22,692.23Z"/><circle class="cls-2" cx="493.11" cy="562.42" r="9.3"/><circle class="cls-2" cx="563.39" cy="643.03" r="9.3"/><path class="cls-3" d="M467.79,524.7,548.4,629.08s16.54,31,42.37,21.7-13.43-37.2-13.43-37.2L498.79,509.2s-10.33-28.06-31-22.3,0,37.8,0,37.8Z"/><polygon class="cls-4" points="604.05 598.03 590.43 605.24 556.14 556.14 576.25 545.5 604.05 598.03"/><path class="cls-5" d="M557.23,622.42h0a13.15,13.15,0,0,0,1.39,4.2h0a5.23,5.23,0,0,0,7.07,2.17l42.17-22.32a3.58,3.58,0,0,0,1.49-4.83l-.93-1.75s-.71-6.38-8.45-10.61c0,0-2.64,7.91-14.84,4.16l-4.61-3-10.44,21.47-8.82,6.16c-1.93,1.35-3.92,2-4,4.37Z"/><polygon class="cls-4" points="536.87 510.19 523.25 517.4 488.97 468.3 509.07 457.66 536.87 510.19"/><path class="cls-5" d="M490.05,534.58h0a13.09,13.09,0,0,0,1.39,4.19h0a5.24,5.24,0,0,0,7.07,2.18l42.18-22.33a3.57,3.57,0,0,0,1.48-4.82l-.93-1.76s-.71-6.38-8.45-10.61c0,0-2.64,7.92-14.84,4.16l-4.61-3-10.43,21.47-8.83,6.15c-1.93,1.35-3.91,2-4,4.38Z"/><path class="cls-6" d="M729.67,597.77c-.87-1.47-4.64.11-5.34-1.23s2.82-3.35,4.82-8c.36-.84,2.64-6.1,1-7.73-3.2-3.07-17.82,9.63-22.94,5.47-1.12-.91-1.91-2.73-5.3-5.69-1.36-1.18-2.17-1.71-3-1.51-1.12.28-1.21,1.78-2.41,4.74-1.81,4.43-2.87,4.16-3.93,7.7-.78,2.62-.6,4.15-1.52,4.44-1.3.42-2.5-2.36-4.14-2.11s-2.7,3.5-3,5.92c-.61,4.56,1.07,7.56,2,10.72,1,3.43,1.61,8.66-.72,16l-23,64.87c5.08-13.32,19.8-49.8,26-63.36,1.79-3.92,3.76-7.89,7.81-9.45,3.89-1.51,9.25-.61,16.07-2.26.8-.19,3-.75,3.28-2.05.23-1.08-1.07-1.68-.87-2.68.27-1.35,2.83-1.37,6-2.93a18.51,18.51,0,0,0,4.79-3.53c.35-.34,5.68-5.44,4.51-7.4Z"/><path class="cls-6" d="M639.09,631.92c-1,0-1.29,2.31-2.14,2.27s-.84-2.35-2.53-4.67c-.31-.42-2.23-3-3.52-2.7-2.43.68-.41,11.53-3.93,12.84a40.47,40.47,0,0,0-4.32,1c-1,.32-1.47.57-1.6,1-.19.63.53,1.11,1.63,2.55,1.65,2.17,1.21,2.61,2.65,4.15,1.06,1.14,1.86,1.49,1.74,2-.17.76-1.88.54-2.23,1.42s.93,2.34,2,3.19c2.06,1.61,4,1.66,5.84,2.12a15.34,15.34,0,0,1,7.67,5l25.19,30c-5.07-6.34-18.73-24.09-23.6-31-1.41-2-2.79-4.12-2.39-6.55s2.37-4.72,3.54-8.54c.13-.45.49-1.7-.06-2.21s-1.14,0-1.57-.34c-.59-.53.14-1.79.28-3.78a10.52,10.52,0,0,0-.35-3.36c-.06-.28-1-4.36-2.33-4.36Z"/><path class="cls-6" d="M658.52,636.29l-.58-5.24.27-.4a9.72,9.72,0,0,0,1.88-5.33c0-.27,0-.54,0-.82a8.18,8.18,0,0,1,.6-4c.39-.88,1.51-2.93,3.19-2.68a2,2,0,0,1,1,.52l.12-.19a5.68,5.68,0,0,1,1.33-1.47,6.51,6.51,0,0,0,1.12-1.13c.22-.27.38-.5.53-.7a2.45,2.45,0,0,1,2-1.32,2.64,2.64,0,0,1,2,1.52,11.47,11.47,0,0,1,1.16,2.29c.08.18.16.39.2.45.34.51,3.14,0,4.19-.14,2.37-.39,4.42-.73,5.26.76.6,1.07.16,2.48-1.37,4.31A8.71,8.71,0,0,1,680,624a1.73,1.73,0,0,1,.84,1.1h0c.32,1.27-.77,2.54-3.24,3.78a8.71,8.71,0,0,1-2.6.93,11.93,11.93,0,0,1-1.45.13,1.82,1.82,0,0,1-.21.77c-.44.8-1.34,1.18-2.7,1.09a21.31,21.31,0,0,1-3.82-.62,9.23,9.23,0,0,0-2.41-.35c-1.19.09-2.11,1-3.19,2.28l-2.69,3.15Z"/><path class="cls-6" d="M661.25,605.1l-4.92,1.9-.45-.16a9.71,9.71,0,0,0-5.64-.47l-.78.23a8.21,8.21,0,0,1-4.06.45c-.95-.16-3.21-.72-3.39-2.41a1.94,1.94,0,0,1,.23-1.15l-.21-.06a6,6,0,0,1-1.76-.92,6.89,6.89,0,0,0-1.38-.8c-.31-.14-.59-.24-.82-.33a2.46,2.46,0,0,1-1.77-1.6,2.64,2.64,0,0,1,1-2.32,13,13,0,0,1,1.92-1.7c.16-.12.34-.25.39-.3.4-.46-.77-3.05-1.2-4-1-2.19-1.83-4.09-.6-5.28.88-.86,2.36-.78,4.51.24a8.19,8.19,0,0,1,1.66,1,1.78,1.78,0,0,1,.85-1.09h0c1.15-.63,2.66.1,4.49,2.18a8.81,8.81,0,0,1,1.55,2.27,10.32,10.32,0,0,1,.5,1.38,1.55,1.55,0,0,1,.8,0c.88.21,1.48,1,1.73,2.33a21.22,21.22,0,0,1,.38,3.85,9.45,9.45,0,0,0,.26,2.42c.4,1.13,1.55,1.78,3,2.5l3.73,1.81Z"/><path class="cls-6" d="M658.52,589.67l-.58-5.24.27-.4a9.7,9.7,0,0,0,1.88-5.33c0-.27,0-.54,0-.82a8.18,8.18,0,0,1,.6-4c.39-.88,1.51-2.93,3.19-2.67a1.89,1.89,0,0,1,1,.51l.12-.19a5.77,5.77,0,0,1,1.33-1.46,7.35,7.35,0,0,0,1.12-1.13c.22-.27.38-.51.53-.71a2.42,2.42,0,0,1,2-1.31,2.63,2.63,0,0,1,2,1.51,12,12,0,0,1,1.16,2.29,4.77,4.77,0,0,0,.2.45c.34.51,3.14,0,4.19-.13,2.37-.4,4.42-.74,5.26.75.6,1.07.16,2.48-1.37,4.31a8.71,8.71,0,0,1-1.44,1.34,1.73,1.73,0,0,1,.84,1.1h0c.32,1.27-.77,2.54-3.24,3.79a8.73,8.73,0,0,1-2.6.92,10.21,10.21,0,0,1-1.45.13,1.86,1.86,0,0,1-.21.78,2.61,2.61,0,0,1-2.7,1.08,21.38,21.38,0,0,1-3.82-.61,9.3,9.3,0,0,0-2.41-.36c-1.19.09-2.11,1-3.19,2.28l-2.69,3.15Z"/><path class="cls-6" d="M663.88,691.34l-1.09-.69-.27-1.27.27,1.27-1.28.15c0-.12-.09-.39-.2-.82a184.25,184.25,0,0,1-3.78-20.69,212.89,212.89,0,0,1-1.71-23.95c-.12-8.07.27-14.18.57-19.09.23-3.7.52-7.22.79-10.66.73-9.17,1.43-17.84.91-27.44a25.28,25.28,0,0,0-3-11.34,24.1,24.1,0,0,0-6.18-7.26l1.61-2a26.69,26.69,0,0,1,6.84,8A27.92,27.92,0,0,1,660.68,588c.52,9.76-.18,18.51-.92,27.78-.27,3.42-.55,6.93-.78,10.62-.31,4.86-.68,10.91-.57,18.88A209.74,209.74,0,0,0,660.1,669a178.68,178.68,0,0,0,3.73,20.41c.3,1.23.36,1.49,0,2Z"/><path class="cls-6" d="M644.2,573.66h-.33c-2.2-.12-4.24-1.44-6.07-3.92-.85-1.17-1.29-2.5-2.16-5.16a31.56,31.56,0,0,1-1.2-5.35c-.26-1.87-.22-2.65.15-3.34a4,4,0,0,1,1.82-1.67,1.57,1.57,0,0,1,.1-.76c.44-1.08,1.62-.94,2.25-.87a6.68,6.68,0,0,0,1.16.07,3.19,3.19,0,0,0,1.6-.54,7.27,7.27,0,0,1,2.16-.85,7.78,7.78,0,0,1,4.08.32c2.8.94,4.18,3.12,5.78,5.64a19.46,19.46,0,0,1,2.13,4.87,5.76,5.76,0,0,1,.29,3.23c-.32,1.24-1.07,1.94-3,3.51a35,35,0,0,1-3.86,2.95c-2,1.16-3.25,1.88-4.92,1.88Z"/><path class="cls-6" d="M216.36,525.72c-1.54-2.6-8.2.18-9.42-2.17s5-5.92,8.5-14.09c.63-1.48,4.65-10.76,1.68-13.62-5.64-5.43-31.43,17-40.46,9.64-2-1.61-3.36-4.82-9.36-10-2.38-2.07-3.82-3-5.22-2.66-2,.49-2.14,3.15-4.26,8.36-3.18,7.81-5.07,7.34-6.92,13.58-1.38,4.63-1.07,7.32-2.69,7.84-2.29.74-4.4-4.17-7.31-3.73s-4.76,6.17-5.33,10.45c-1.06,8,1.89,13.33,3.53,18.9,1.77,6.06,2.83,15.27-1.28,28.31L97.21,690.91c9-23.48,34.93-87.84,45.84-111.76,3.15-6.9,6.62-13.9,13.76-16.67,6.88-2.66,16.32-1.07,28.35-4,1.41-.34,5.31-1.33,5.8-3.62.4-1.9-1.89-3-1.54-4.74.47-2.38,5-2.41,10.53-5.16a33,33,0,0,0,8.44-6.22c.63-.6,10-9.6,8-13Z"/><path class="cls-6" d="M56.58,586c-1.72,0-2.27,4.07-3.78,4s-1.48-4.14-4.47-8.23c-.54-.74-3.93-5.39-6.2-4.76-4.29,1.2-.73,20.32-6.93,22.64-1.37.51-3.34.26-7.63,1.7-1.71.57-2.58,1-2.82,1.79-.32,1.12.93,2,2.88,4.5,2.91,3.82,2.14,4.61,4.66,7.32,1.88,2,3.29,2.63,3.08,3.58-.3,1.34-3.32,1-3.94,2.51s1.65,4.12,3.59,5.63c3.64,2.84,7.09,2.92,10.29,3.73,3.49.87,8.31,3,13.53,8.79l44.44,53c-8.93-11.18-33-42.49-41.63-54.75-2.48-3.53-4.91-7.26-4.21-11.56.68-4.14,4.18-8.32,6.23-15.06.24-.79.88-3-.1-3.89-.82-.75-2,.07-2.77-.61-1-.92.26-3.15.51-6.66a19.14,19.14,0,0,0-.62-5.94c-.12-.48-1.82-7.68-4.11-7.67Z"/><path class="cls-6" d="M90.85,593.65l-1-9.24.47-.7a17.13,17.13,0,0,0,3.32-9.4c0-.48,0-1,0-1.45a14.4,14.4,0,0,1,1-7.11c.7-1.56,2.67-5.16,5.63-4.72a3.41,3.41,0,0,1,1.86.91c.06-.11.13-.21.21-.33a10.13,10.13,0,0,1,2.35-2.59,11.37,11.37,0,0,0,2-2c.38-.48.68-.9.93-1.25.77-1.07,1.77-2.34,3.53-2.32s2.87,1.65,3.52,2.68a22.16,22.16,0,0,1,2,4c.13.32.27.68.34.8.61.89,5.54,0,7.4-.25,4.18-.7,7.79-1.3,9.27,1.33,1.07,1.89.28,4.38-2.42,7.6a15.09,15.09,0,0,1-2.53,2.37,3.08,3.08,0,0,1,1.49,1.94h0c.56,2.24-1.37,4.48-5.72,6.68a15.67,15.67,0,0,1-4.58,1.63,20.13,20.13,0,0,1-2.57.23,3.16,3.16,0,0,1-.38,1.37c-.76,1.4-2.36,2.07-4.76,1.91a36.68,36.68,0,0,1-6.73-1.09,16.7,16.7,0,0,0-4.25-.63c-2.1.17-3.72,1.85-5.62,4l-4.75,5.55Z"/><path class="cls-6" d="M95.65,538.64,87,542l-.8-.28a17.13,17.13,0,0,0-9.94-.82c-.46.12-.91.26-1.38.41a14.51,14.51,0,0,1-7.15.79c-1.68-.28-5.67-1.27-6-4.25a3.35,3.35,0,0,1,.41-2l-.37-.12a10.27,10.27,0,0,1-3.1-1.62,12.06,12.06,0,0,0-2.43-1.4c-.56-.25-1-.44-1.45-.59-1.22-.47-2.71-1.11-3.13-2.82s.86-3.2,1.69-4.09a22.27,22.27,0,0,1,3.4-3c.27-.21.59-.44.68-.54.7-.81-1.35-5.37-2.12-7.09-1.73-3.86-3.23-7.2-1.06-9.31,1.55-1.51,4.16-1.37,8,.42a14.83,14.83,0,0,1,2.93,1.85,3.12,3.12,0,0,1,1.5-1.93h0c2-1.12,4.69.18,7.91,3.83a15.46,15.46,0,0,1,2.75,4,18.72,18.72,0,0,1,.87,2.43,3,3,0,0,1,1.42,0c1.55.39,2.6,1.76,3.06,4.12a36.92,36.92,0,0,1,.65,6.79,16.54,16.54,0,0,0,.47,4.27c.7,2,2.73,3.13,5.33,4.42l6.56,3.18Z"/><path class="cls-6" d="M90.85,511.42l-1-9.24.47-.7a17.13,17.13,0,0,0,3.32-9.4c0-.48,0-1,0-1.44a14.42,14.42,0,0,1,1-7.12c.7-1.56,2.67-5.16,5.63-4.72a3.41,3.41,0,0,1,1.86.91c.06-.11.13-.21.21-.33a10.13,10.13,0,0,1,2.35-2.59,11.37,11.37,0,0,0,2-2c.38-.48.68-.9.93-1.25.77-1.07,1.77-2.34,3.53-2.32s2.87,1.65,3.52,2.68a22.16,22.16,0,0,1,2,4c.13.32.27.68.34.8.61.89,5.54.05,7.4-.25,4.18-.7,7.79-1.3,9.27,1.33,1.07,1.89.28,4.38-2.42,7.6a15.09,15.09,0,0,1-2.53,2.37,3.08,3.08,0,0,1,1.49,1.94h0c.56,2.24-1.37,4.48-5.72,6.68a15.67,15.67,0,0,1-4.58,1.63,20.13,20.13,0,0,1-2.57.23,3.16,3.16,0,0,1-.38,1.37c-.76,1.4-2.36,2.07-4.76,1.91a37.62,37.62,0,0,1-6.73-1.08,16.33,16.33,0,0,0-4.25-.64c-2.1.17-3.72,1.85-5.62,4l-4.75,5.55Z"/><path class="cls-6" d="M100.31,690.76l-1.94-1.21-.47-2.24.47,2.24-2.26.26c0-.21-.16-.69-.34-1.45a323.17,323.17,0,0,1-6.66-36.5,373,373,0,0,1-3-42.24c-.21-14.23.46-25,1-33.66.41-6.53.91-12.75,1.39-18.81,1.3-16.19,2.52-31.48,1.61-48.4a44.8,44.8,0,0,0-5.22-20A42.39,42.39,0,0,0,74,475.93l2.84-3.58a47.12,47.12,0,0,1,12.08,14.19,49.15,49.15,0,0,1,5.77,22c.93,17.22-.31,32.66-1.61,49-.48,6-1,12.23-1.39,18.73-.53,8.58-1.2,19.26-1,33.31a366.17,366.17,0,0,0,3,41.72,317.73,317.73,0,0,0,6.57,36c.53,2.18.64,2.63.1,3.49Z"/><path class="cls-6" d="M65.58,483.19a5.43,5.43,0,0,1-.57,0c-3.89-.21-7.49-2.54-10.71-6.92-1.51-2.06-2.28-4.41-3.82-9.1a56.47,56.47,0,0,1-2.1-9.43c-.46-3.3-.4-4.68.25-5.9a7,7,0,0,1,3.22-2.94,2.53,2.53,0,0,1,.18-1.34c.78-1.91,2.85-1.66,4-1.54a11.22,11.22,0,0,0,2,.13,5.78,5.78,0,0,0,2.82-.95,12.54,12.54,0,0,1,3.82-1.51,13.7,13.7,0,0,1,7.19.57c4.94,1.65,7.38,5.49,10.2,9.94a34.85,34.85,0,0,1,3.76,8.59c.92,3.21.79,4.64.52,5.7-.57,2.18-1.89,3.43-5.26,6.19a60.49,60.49,0,0,1-6.81,5.21c-3.53,2-5.75,3.32-8.69,3.32Z"/><path class="cls-5" d="M585.6,405.85,535,487.49l52.71,74.41L567,572.24s-67.17-71.31-69.24-80.61,20.67-74.41,20.67-74.41H475.26l41.1,51.67-19.63,12.4-70.28-68.21s-8.27-13.74,0-18.75,82.4-38.09,82.4-38.09l76.75,49.61Z"/><circle class="cls-2" cx="469.34" cy="541.75" r="9.3"/><circle class="cls-2" cx="539.1" cy="631.15" r="9.3"/><path class="cls-3" d="M462.1,283.38l15.51-28.94s47.48,9.3,62.49,28.94S582,354.69,582,354.69s20.67,41.34,2.06,64.08S541.68,396,541.68,396l-34.1-38.24-4.14-1L462.1,283.38Z"/><path id="b-306" class="cls-4" d="M438.52,404.9a21.69,21.69,0,0,1,6-8.29l22.38-59.91,17.33,6.67-25.53,59.31a21.74,21.74,0,0,1-1.84,10.09c-3.41,8-10.3,12.68-15.37,10.51s-6.43-10.4-3-18.38Z"/><polygon class="cls-3" points="473.99 284.93 514.81 297.85 481.22 356.24 455.39 354.17 473.99 284.93"/><path id="c-307" class="cls-4" d="M378.6,333.05a21.69,21.69,0,0,1,10.19-1.17l59.26-24.08,6.81,17.27-60.94,21.36a21.77,21.77,0,0,1-8.66,5.48c-8.19,2.88-16.31,1-18.15-4.21s3.31-11.76,11.49-14.65Z"/><polygon class="cls-3" points="476.57 272.01 506.58 305.66 443.33 331.54 427.36 311.12 476.57 272.01"/><path class="cls-5" d="M244.49,466.53l.15,0a31.9,31.9,0,0,0,15.67-1.46c3.08-1.17,2-1.46,8.89-5.54,8.05-4.78,10.11-4.75,10.71-7,1.19-4.45-5.19-11.45-9.42-11-1.11.12-2.3.78-4.16.33a4.9,4.9,0,0,1-3.06-2c-.77-1.31-.11-2.26-.43-3.34-.81-2.84-7.64-4.25-13.62-3.25-3.44.57-6.11,2.14-11.33,5.26-9.07,5.42-13.6,8.13-14.62,12.28-1,3.94,1.35,5.64-.33,9.85-1.57,3.92-4.07,3.66-4.93,6.83-1.38,5.11,3.75,10.72,5.88,13.05a32.53,32.53,0,0,0,7.56,5.83c3.73,2.34,5.59,3.51,7.84,3.4,4.06-.22,16.14.51,16.3-2.85.06-1.26,14.71-.23,7.5-13.81-.89-1.66-18.22.12-18.45-.84"/><circle class="cls-7" cx="247.79" cy="458.57" r="22.91"/><path class="cls-3" d="M167.37,642.88s-32.14-10.25-33.54-5.12,22.83,13.51,41.93,13.51,139.29-.93,139.29-.93,33.54-10.72,23.76-12.58-171.44,5.12-171.44,5.12Z"/><circle class="cls-2" cx="182.28" cy="657.32" r="8.85"/><circle class="cls-2" cx="297.35" cy="657.32" r="8.85"/><path class="cls-1" d="M261,487.29l-26.86-2.55-9.47,8.14h0a22.36,22.36,0,0,0-14.6,20.54l-1.48,74.26,69,4.19s-7.45-17.24-2.33-20.5,8.26-48,4-55.2a77.39,77.39,0,0,1-6.75-15.61L261,487.29Z"/><path class="cls-5" d="M210.47,585.35l-8.39,21s-13,29.35-.47,37.74,85.26,1.86,85.26,1.86,7-6.06,10.25-18.63-17.24-32.61-17.24-32.61l-2.33-2.8-67.08-6.52Z"/><path id="d-308" class="cls-7" d="M300.65,639.87c1.38,7.24,6.22,12.4,10.83,11.52s7.23-7.45,5.86-14.69a18.48,18.48,0,0,0-3.49-8l-6.2-30.6-14.3,3.22L301,631.16a18.6,18.6,0,0,0-.33,8.71Z"/><path class="cls-1" d="M260,534.68a21.94,21.94,0,0,0,12.86,6.44c8.36,1.17,21.41,78.49,21.41,78.49l17.93-7.4s-9.54-70.22-12.19-75-30.73-40.11-30.73-40.11L260,534.68Z"/><path id="e-309" class="cls-7" d="M188.32,641.93c-1.38,7.24-6.22,12.4-10.83,11.53s-7.23-7.45-5.85-14.69a18.34,18.34,0,0,1,3.48-8l6.2-30.6,14.3,3.22L188,633.23a18.56,18.56,0,0,1,.33,8.7Z"/><path class="cls-1" d="M229,536.75a21.89,21.89,0,0,1-12.86,6.43c-8.36,1.18-21.41,78.49-21.41,78.49l-17.93-7.4s9.54-70.22,12.2-74.95,30.72-40.11,30.72-40.11L229,536.75Z"/><polygon class="cls-7" points="265.68 626.54 251.97 614.6 219.71 660.06 228.99 668.16 265.68 626.54"/><path class="cls-5" d="M288.26,639.39s24.7-41,25.63-58.7-14.44-20-20-16.3S228,636.66,228,636.66l18.86,12.67,40.79-32.49Z"/><polygon class="cls-7" points="218.7 628.87 231.91 616.38 265.98 660.5 257.03 668.97 218.7 628.87"/><path class="cls-5" d="M197.42,639.39s-24.69-41-25.62-58.7,14.44-20,20-16.3,61.45,75,61.45,75l-14.4,9.94-40.8-32.49Z"/><path class="cls-5" d="M223.28,652.2S206,661.05,207,663.38s1.87,11.18,1.87,11.18-13.05,8.85-1.4,14.91,20.5,5.59,21.89,1.86,1.87-14.44,1.87-14.44l6.05-15.37-14-9.32Z"/><path class="cls-5" d="M261.94,653.6s17.24,8.85,16.31,11.18S276.39,676,276.39,676s13,8.85,1.39,14.91-20.49,5.59-21.89,1.86S254,678.29,254,678.29L248,662.91Z"/><path class="cls-5" d="M240.41,460.05l.15,0a32,32,0,0,0,15.67-1.46c3.08-1.18,2-1.47,8.89-5.55,8.05-4.78,10.11-4.75,10.71-7,1.19-4.45-5.19-11.45-9.42-11-1.11.12-2.3.79-4.16.34a4.94,4.94,0,0,1-3.06-2c-.77-1.32-.11-2.27-.43-3.35-.81-2.83-7.64-4.25-13.62-3.25-3.44.58-6.11,2.15-11.32,5.26-9.08,5.42-13.61,8.13-14.63,12.29-1,3.93,1.35,5.63-.33,9.84-1.57,3.93-4.07,3.66-4.93,6.84-1.38,5.11,3.75,10.71,5.88,13.05a32.8,32.8,0,0,0,7.56,5.83c3.73,2.34,5.59,3.51,7.84,3.39,4.06-.22,8.11-3.9,8.26-7.27.06-1.26-.46-1.64-1.77-6-.54-1.81-.91-3.3-1.14-4.25"/><circle class="cls-5" cx="464.17" cy="212.07" r="12.54"/><circle class="cls-4" cx="444.9" cy="240.98" r="27.32"/><path class="cls-5" d="M464.5,265.23c3.27.3,8.61-8.07,8.37-16.18-.15-5.22,4.38-6.24,4.71-13,.2-3.92-5.82-5.14-6.23-8.29a18.56,18.56,0,0,0-4.89-10c-4-4-6.75-2.72-11.41-7.38-2.8-2.8-2.09-3.57-4-4.82-5.45-3.59-15.25.3-21.1,5.55-2,1.81-9.58-.17-12.88,4.95-3.89,6-3,18.36-1.32,20,1,1,3.32-1.42,9.59-3,5.81-1.43.33,5.66,7,4.47,7.94-1.41,9.49-3.82,12.46-2.38,3.14,1.53,5.6,6.27,4.89,10-.36,1.85-1.38,2.88-.81,3.82,1.06,1.71,2.27,0,3.62,1.75,1.58,2-2.33,7.15-1.6,7.64.15.1.6.09,4.82-4,1.69-1.62,2.18-2.62,2.51-2.47.54.25,4,3.51,2.7,6.09-2.08,4,.58,4.13,0,6.83s1.42.16,3.5.34Z"/></svg>